<svg xmlns="http://www.w3.org/2000/svg" viewBox="0 0 71 40"><defs><style>.cls-1{fill:#363636;fill-rule:evenodd;}</style></defs><title>Asset 1</title><g id="Layer_2" data-name="Layer 2"><g id="Layer_1-2" data-name="Layer 1"><path class="cls-1" d="M20.76,39.69V27.61H24V39.69Zm14.61-9.16a11.46,11.46,0,0,0-2.43-.36c-1.25,0-1.93.4-1.93,1,0,.73.92,1,1.43,1.14l.86.27c2,.62,2.94,2,2.94,3.42,0,3-2.73,4-5.11,4a19.08,19.08,0,0,1-3.36-.33V36.92a12.53,12.53,0,0,0,2.94.44c1.55,0,2.26-.44,2.26-1.12s-.62-1-1.39-1.19l-.66-.21c-1.74-.53-3.18-1.52-3.18-3.5,0-2.24,1.73-3.74,4.6-3.74a13.31,13.31,0,0,1,3,.38v2.55ZM65,33.8a6.53,6.53,0,1,1-6.52-6.2A6.25,6.25,0,0,1,65,33.8Zm-6.52-3.15a3.15,3.15,0,1,0,3.22,3.15A3.14,3.14,0,0,0,58.46,30.65Zm-42.29.59a5.56,5.56,0,0,0-2.61-.63,3.2,3.2,0,1,0,0,6.38,5.61,5.61,0,0,0,2.61-.63v3.21a9.94,9.94,0,0,1-2.84.43c-3.5,0-6.57-2.35-6.57-6.2,0-3.58,2.78-6.2,6.57-6.2a9.47,9.47,0,0,1,2.84.43Zm32.5,0a5.67,5.67,0,0,0-2.62-.63,3.2,3.2,0,1,0,0,6.38,5.72,5.72,0,0,0,2.62-.63v3.21a10.08,10.08,0,0,1-2.84.43c-3.5,0-6.58-2.35-6.58-6.2,0-3.58,2.78-6.2,6.58-6.2a9.61,9.61,0,0,1,2.84.43Z"/><path class="cls-1" d="M71,11.27a1.54,1.54,0,0,0-3.08,0v3.14a1.47,1.47,0,0,0,.76,1.33,1.6,1.6,0,0,0,1.56,0A1.51,1.51,0,0,0,71,14.41V11.27ZM62.52,7.14a1.55,1.55,0,0,0-3.1,0h0v7.27A1.52,1.52,0,0,0,61,15.91h0a1.52,1.52,0,0,0,1.56-1.5V7.14ZM54,1.5A1.52,1.52,0,0,0,52.49,0h0A1.52,1.52,0,0,0,51,1.5h0V17.39a1.48,1.48,0,0,0,.75,1.36,1.59,1.59,0,0,0,1.58,0A1.53,1.53,0,0,0,54,17.39V1.5Zm-8.5,5.64a1.54,1.54,0,0,0-3.08,0h0v7.27a1.54,1.54,0,0,0,3.08,0V7.14ZM37,11.27a1.54,1.54,0,0,0-3.08,0v3.15a1.54,1.54,0,0,0,3.08,0h0V11.27ZM28.56,7.14a1.55,1.55,0,0,0-3.09,0v7.27A1.52,1.52,0,0,0,27,15.91h0a1.52,1.52,0,0,0,1.55-1.5h0V7.14ZM20.07,1.5A1.55,1.55,0,0,0,17,1.5V17.39a1.55,1.55,0,0,0,3.09,0ZM11.58,7.14a1.55,1.55,0,0,0-3.09,0v7.27A1.52,1.52,0,0,0,10,15.91h0a1.52,1.52,0,0,0,1.55-1.5h0V7.14ZM3.09,11.27a1.52,1.52,0,0,0-1.54-1.5A1.52,1.52,0,0,0,0,11.26v3.15a1.52,1.52,0,0,0,1.55,1.5,1.52,1.52,0,0,0,1.54-1.5V11.27Z"/></g></g></svg>