<svg xmlns="http://www.w3.org/2000/svg" viewBox="0 0 65.61 22.63"><defs><style>.cls-1{fill:#363636;}</style></defs><title>Asset 2</title><g id="Layer_2" data-name="Layer 2"><g id="Layer_1-2" data-name="Layer 1"><path class="cls-1" d="M11.81,11.3a3.75,3.75,0,0,0-4.06-4H6.29v8H7.7C9.92,15.28,11.81,14.08,11.81,11.3Zm26,2.87L27,22.63,17.19,14.9a9.49,9.49,0,0,1-8.78,5.77H0V1.94H8.41a9.41,9.41,0,0,1,8.78,5.79L27,0l3.64,2.86-9,7.08,1.73,1.36,9-7.08L36,7.08l-9,7.09,1.72,1.35,9-7.08V1.94H44.3V15.2h6.52v5.49h-13Zm21.32,1h6.52v5.49H52.55V1.94h6.54Z"/></g></g></svg>