<svg xmlns="http://www.w3.org/2000/svg" viewBox="0 0 89.83 17.9"><defs><style>.cls-1{fill:#363636;}</style></defs><title>Asset 3</title><g id="Layer_2" data-name="Layer 2"><g id="Layer_1-2" data-name="Layer 1"><path class="cls-1" d="M9.77,8.67a5.71,5.71,0,0,0-.94-3.59A3.41,3.41,0,0,0,6,3.91H4.64v9.86h1a3.7,3.7,0,0,0,3.1-1.26A6.17,6.17,0,0,0,9.77,8.67Zm4.81-.17a9.27,9.27,0,0,1-2.36,6.79,9,9,0,0,1-6.66,2.38H0V.07H6a8.85,8.85,0,0,1,6.38,2.17A8.3,8.3,0,0,1,14.58,8.5ZM30,17.67H34.4V0H30Zm10.63-6.59a5.83,5.83,0,0,0,.45,2.57,1.51,1.51,0,0,0,1.48.89A1.47,1.47,0,0,0,44,13.65a6.2,6.2,0,0,0,.42-2.57A5.81,5.81,0,0,0,44,8.54a1.67,1.67,0,0,0-2.92,0A5.57,5.57,0,0,0,40.61,11.08Zm8.31,0a7,7,0,0,1-1.7,5,6.16,6.16,0,0,1-4.73,1.8,6,6,0,0,1-4.64-1.84,7,7,0,0,1-1.73-5,7,7,0,0,1,1.69-5,6.27,6.27,0,0,1,4.75-1.78,6.65,6.65,0,0,1,3.34.83,5.51,5.51,0,0,1,2.23,2.35A7.85,7.85,0,0,1,48.92,11.08Zm1.75,6.59h4.42V4.54H50.67ZM50.67,3h4.42V0H50.67ZM64.06,14.32a6.46,6.46,0,0,0,2.13-.45v3.3a8.43,8.43,0,0,1-1.7.56,9.53,9.53,0,0,1-1.89.17,4.08,4.08,0,0,1-3.22-1.12,5.11,5.11,0,0,1-1-3.43V7.94H56.85V4.55H58.4V1.19L62.86.42V4.55h2.82V7.94H62.86v5.11C62.86,13.9,63.26,14.32,64.06,14.32Zm10.23,0a6.46,6.46,0,0,0,2.14-.45v3.3a8.64,8.64,0,0,1-1.7.56,9.57,9.57,0,0,1-1.9.17,4.07,4.07,0,0,1-3.21-1.12,5.11,5.11,0,0,1-1-3.43V7.94H67.09V4.55h1.55V1.14L73.09.42V4.55h2.83V7.94H73.09v5.11C73.09,13.9,73.49,14.32,74.29,14.32ZM82,9.48a2.38,2.38,0,0,1,.62-1.58,1.79,1.79,0,0,1,1.3-.51A1.73,1.73,0,0,1,85.29,8a2.31,2.31,0,0,1,.52,1.52Zm6.24-3.62a7.14,7.14,0,0,0-9.16.23,7.29,7.29,0,0,0-1.64,5.1,6.68,6.68,0,0,0,1.77,5,6.8,6.8,0,0,0,5,1.74,14.4,14.4,0,0,0,2.64-.21A7.69,7.69,0,0,0,89,16.94l-.68-3a9.42,9.42,0,0,1-1.43.46,9.55,9.55,0,0,1-2.14.23,3,3,0,0,1-2-.62,2.27,2.27,0,0,1-.79-1.73h7.91v-2A6,6,0,0,0,88.25,5.86ZM20.45,9.48a2.38,2.38,0,0,1,.62-1.58,1.81,1.81,0,0,1,1.31-.51A1.72,1.72,0,0,1,23.73,8a2.31,2.31,0,0,1,.52,1.52Zm6.24-3.62a6.12,6.12,0,0,0-4.47-1.55,6.06,6.06,0,0,0-4.68,1.78,7.24,7.24,0,0,0-1.65,5.1,6.64,6.64,0,0,0,1.78,5,6.78,6.78,0,0,0,5,1.74,14.4,14.4,0,0,0,2.64-.21,7.69,7.69,0,0,0,2.14-.75l-.68-3a9.42,9.42,0,0,1-1.43.46,9.49,9.49,0,0,1-2.14.23,3.07,3.07,0,0,1-2-.62,2.27,2.27,0,0,1-.79-1.73h7.91v-2a6,6,0,0,0-1.58-4.45"/></g></g></svg>