<svg xmlns="http://www.w3.org/2000/svg" viewBox="0 0 118 49.28"><defs><style>.cls-1{fill:#363636;}</style></defs><title>Asset 4</title><g id="Layer_2" data-name="Layer 2"><g id="Layer_1-2" data-name="Layer 1"><path class="cls-1" d="M37.86,9.07H2.52V2.52H37.86ZM40.38,0H0V11.6H40.38Z"/><path class="cls-1" d="M2.52,30.76H0V19.17H2.52v4.58H7V19.17H9.56V30.76H7V26H2.52Z"/><path class="cls-1" d="M13.38,25.68h3c-.06-.85-.41-1.45-1.4-1.45A1.53,1.53,0,0,0,13.38,25.68ZM15.29,31A4,4,0,0,1,11,26.68a4,4,0,0,1,4-4.36c2.47,0,3.69,1.65,3.69,4.12v.93H13.38A2.08,2.08,0,0,0,15.68,29,3.89,3.89,0,0,0,18,28.31h.1v1.91A4.67,4.67,0,0,1,15.29,31Z"/><path class="cls-1" d="M25.24,25.9l-1.3,4.86H21.73L19.21,22.6v-.1h2.41L23,27.38l1.3-4.88h2l1.32,4.88L29,22.5h2.32v.1l-2.53,8.16h-2.2Z"/><path class="cls-1" d="M35.39,31c-2,0-2.82-.8-2.82-2.67V19.17H35v8.94c0,.57.22.78.7.78a2.06,2.06,0,0,0,.56-.11h0v2A3.1,3.1,0,0,1,35.39,31Z"/><path class="cls-1" d="M39.4,25.68h3c0-.85-.4-1.45-1.39-1.45A1.53,1.53,0,0,0,39.4,25.68ZM41.31,31A4,4,0,0,1,37,26.68a4,4,0,0,1,4-4.36c2.46,0,3.69,1.65,3.69,4.12v.93H39.4A2.08,2.08,0,0,0,41.7,29,3.89,3.89,0,0,0,44,28.31h.09v1.91A4.61,4.61,0,0,1,41.31,31Z"/><path class="cls-1" d="M54.72,22.5h1.82v2H54.72v3.36c0,.72.28,1.06,1,1.06a2.43,2.43,0,0,0,.75-.11h0v1.93A4.4,4.4,0,0,1,55,31c-2,0-2.77-.91-2.77-3V24.47H49.14v3.36c0,.72.28,1.06,1,1.06a2.41,2.41,0,0,0,.74-.11H51v1.93a4.47,4.47,0,0,1-1.51.24c-2,0-2.76-.91-2.76-3V24.47H45.43v-2h1.26V20.24h2.45V22.5h3.13V20.24h2.45Z"/><path class="cls-1" d="M64.8,24.86a1.66,1.66,0,0,0,1.89-1.76,1.67,1.67,0,0,0-1.89-1.8H63.2v3.56Zm4.45-1.76c0,2.52-1.69,3.9-4.25,3.9H63.2v3.76H60.68V19.17H65C67.56,19.17,69.25,20.54,69.25,23.1Z"/><path class="cls-1" d="M74.63,28.16v-.7a2.89,2.89,0,0,0-1.35-.28c-.8,0-1.28.3-1.28,1s.48,1,1.2,1A1.43,1.43,0,0,0,74.63,28.16ZM74.71,30a2.78,2.78,0,0,1-2.19,1,2.7,2.7,0,0,1-2.94-2.73c0-1.61,1.32-2.69,3.21-2.69a6.69,6.69,0,0,1,1.84.28v-.15c0-.89-.5-1.28-1.82-1.28a4.74,4.74,0,0,0-2.32.63H70.4V23a6.12,6.12,0,0,1,2.84-.69c2.49,0,3.84,1.19,3.84,3.27v5.17H74.71Z"/><path class="cls-1" d="M78.33,26.64a4.13,4.13,0,0,1,4.32-4.32A3.93,3.93,0,0,1,85,23v2.1h-.09A3.07,3.07,0,0,0,83,24.4a2.08,2.08,0,0,0-2.16,2.24A2.07,2.07,0,0,0,83,28.87a3.07,3.07,0,0,0,1.89-.65H85v2.1a3.93,3.93,0,0,1-2.3.63A4.11,4.11,0,0,1,78.33,26.64Z"/><path class="cls-1" d="M88.94,27v3.75H86.49V19.17h2.45v6.6l2.47-3.27h2.78v.1l-3,3.75,3,4.32v.09h-2.8Z"/><path class="cls-1" d="M99.68,28.16v-.7a2.89,2.89,0,0,0-1.35-.28c-.8,0-1.28.3-1.28,1s.48,1,1.2,1A1.43,1.43,0,0,0,99.68,28.16ZM99.76,30a2.78,2.78,0,0,1-2.19,1,2.69,2.69,0,0,1-2.93-2.73c0-1.61,1.31-2.69,3.21-2.69a6.67,6.67,0,0,1,1.83.28v-.15c0-.89-.5-1.28-1.81-1.28a4.68,4.68,0,0,0-2.32.63h-.1V23a6.12,6.12,0,0,1,2.84-.69c2.49,0,3.84,1.19,3.84,3.27v5.17H99.76Z"/><path class="cls-1" d="M106.25,23.84a2.2,2.2,0,0,1,2-1.43,2.05,2.05,0,0,1,.8.15V24.9H109a2.81,2.81,0,0,0-1.07-.19,1.55,1.55,0,0,0-1.56,1.3v4.75h-2.45V22.5h2.37Z"/><path class="cls-1" d="M115.55,28V25.31a1.8,1.8,0,0,0-1.56-.86c-1.07,0-1.8.78-1.8,2.19s.73,2.17,1.8,2.17A1.81,1.81,0,0,0,115.55,28Zm.07,1.95a2.9,2.9,0,0,1-2.44,1c-2.12,0-3.47-1.93-3.47-4.31s1.35-4.32,3.47-4.32a2.91,2.91,0,0,1,2.37.95v-4.1H118V30.76h-2.38Z"/><path class="cls-1" d="M0,34.55H7.16V36H1.61V39.5h5v1.38h-5v3.85H7.16v1.41H0Z"/><path class="cls-1" d="M13.08,37.81c1.84,0,2.86,1.21,2.86,3.19v5.14H14.4V41a1.61,1.61,0,0,0-1.71-1.82,2.16,2.16,0,0,0-2.06,1.49v5.43H9.09V38h1.54v1.19A2.84,2.84,0,0,1,13.08,37.81Z"/><path class="cls-1" d="M20.08,38h2.1V39.3h-2.1v4.4c0,.92.48,1.24,1.35,1.24a2.12,2.12,0,0,0,.69-.11h.06v1.31a2.41,2.41,0,0,1-1,.17c-1.91,0-2.67-.87-2.67-2.47V39.3H17.13V38h1.41V35.81h1.54Z"/><path class="cls-1" d="M24.75,41.26h4.07c-.06-1.2-.65-2.13-1.91-2.13A2.26,2.26,0,0,0,24.75,41.26Zm2.44,5.05a3.84,3.84,0,0,1-4-4.15c0-2.57,1.52-4.35,3.73-4.35s3.41,1.62,3.41,4v.71H24.7A2.5,2.5,0,0,0,27.39,45a3.46,3.46,0,0,0,2.28-.75h.06v1.36A4,4,0,0,1,27.19,46.31Z"/><path class="cls-1" d="M33.66,39.24a2.17,2.17,0,0,1,2-1.39,2,2,0,0,1,.79.13V39.5h0a2.42,2.42,0,0,0-1-.16,1.87,1.87,0,0,0-1.8,1.48v5.32H32.12V38h1.54Z"/><path class="cls-1" d="M41.46,44.92c1.52,0,2.41-1.21,2.41-2.86s-.89-2.85-2.41-2.85a2.32,2.32,0,0,0-2,1.29v3.14A2.29,2.29,0,0,0,41.46,44.92Zm.26-7.11c2.43,0,3.73,2,3.73,4.25s-1.3,4.25-3.73,4.25a3,3,0,0,1-2.29-1.08v4.05H37.89V38h1.54v.93A2.91,2.91,0,0,1,41.72,37.81Z"/><path class="cls-1" d="M48.81,39.24a2.15,2.15,0,0,1,2-1.39,2,2,0,0,1,.8.13V39.5h-.06a2.37,2.37,0,0,0-1-.16,1.87,1.87,0,0,0-1.8,1.48v5.32H47.27V38h1.54Z"/><path class="cls-1" d="M53.85,34.68a1,1,0,1,1-1,1A1,1,0,0,1,53.85,34.68Z"/><path class="cls-1" d="M53.09,46.14h1.54V38H53.09Z"/><path class="cls-1" d="M60.13,41.38c1.16.37,2.46.85,2.46,2.41s-1.37,2.52-3.13,2.52a4.76,4.76,0,0,1-2.77-.74V44.1h.08a4,4,0,0,0,2.67.91c.87,0,1.65-.33,1.65-1s-.65-.89-1.93-1.31-2.43-.8-2.43-2.34,1.3-2.51,3-2.51a4.41,4.41,0,0,1,2.5.67V40h0a3.71,3.71,0,0,0-2.41-.86c-1,0-1.51.43-1.51,1S58.81,41,60.13,41.38Z"/><path class="cls-1" d="M65.52,41.26h4.07c-.06-1.2-.65-2.13-1.91-2.13A2.26,2.26,0,0,0,65.52,41.26ZM68,46.31a3.84,3.84,0,0,1-4-4.15c0-2.57,1.52-4.35,3.73-4.35s3.41,1.62,3.41,4v.71h-5.6A2.49,2.49,0,0,0,68.16,45a3.46,3.46,0,0,0,2.28-.75h.06v1.36A4,4,0,0,1,68,46.31Z"/></g></g></svg>