<svg xmlns="http://www.w3.org/2000/svg" viewBox="0 0 74 51.8"><defs><style>.cls-1{fill:#363636;}.cls-1,.cls-2{fill-rule:evenodd;}.cls-2{fill:#fff;}</style></defs><title>Asset 5</title><g id="Layer_2" data-name="Layer 2"><g id="Layer_1-2" data-name="Layer 1"><path class="cls-1" d="M30.79,5.65a13,13,0,0,1,20.8,2.74A15.62,15.62,0,0,1,58.05,7a16.09,16.09,0,0,1,0,32.18,16.33,16.33,0,0,1-3.15-.31,11.67,11.67,0,0,1-15.28,4.8,13.3,13.3,0,0,1-24.73-.6,12.73,12.73,0,0,1-2.54.26A12.5,12.5,0,0,1,6.18,20.06,14.19,14.19,0,0,1,5,14.35a14.38,14.38,0,0,1,25.8-8.7Z"/><path class="cls-2" d="M10.72,26.86c-.05.12,0,.15,0,.17a4.64,4.64,0,0,0,.42.25,4.53,4.53,0,0,0,2.21.52c1.52,0,2.47-.81,2.47-2.11v0c0-1.2-1.07-1.64-2.07-2l-.13,0c-.75-.24-1.4-.45-1.4-1v0c0-.43.38-.74,1-.74a4.48,4.48,0,0,1,1.93.49s.15.1.2,0l.31-.84a.14.14,0,0,0-.08-.17,4.37,4.37,0,0,0-2.17-.58h-.15a2.12,2.12,0,0,0-2.36,2v0c0,1.27,1.07,1.68,2.07,2l.16,0c.73.23,1.36.42,1.36.93v0c0,.47-.41.82-1.07.82a3.55,3.55,0,0,1-1.95-.56c-.11-.06-.17-.11-.25-.16s-.16-.07-.2.07Zm22.22,0A.13.13,0,0,0,33,27a4.64,4.64,0,0,0,.42.25,4.54,4.54,0,0,0,2.22.52c1.52,0,2.46-.81,2.46-2.11v0c0-1.2-1.07-1.64-2.06-2l-.13,0c-.76-.24-1.41-.45-1.41-1v0c0-.43.38-.74,1-.74a4.44,4.44,0,0,1,1.93.49s.15.1.2,0l.31-.84a.14.14,0,0,0-.07-.17,4.38,4.38,0,0,0-2.18-.58h-.15a2.12,2.12,0,0,0-2.36,2v0c0,1.27,1.07,1.68,2.07,2l.16,0c.73.23,1.36.42,1.36.93v0c0,.47-.41.82-1.06.82a3.56,3.56,0,0,1-2-.56c-.11-.06-.17-.11-.25-.16a.13.13,0,0,0-.2.07Zm15.17-2.55A3.14,3.14,0,0,1,47.7,26a1.56,1.56,0,0,1-2.46,0,3.23,3.23,0,0,1-.4-1.73,3.15,3.15,0,0,1,.4-1.71,1.56,1.56,0,0,1,2.46,0A3.06,3.06,0,0,1,48.11,24.31ZM49.38,23a3.13,3.13,0,0,0-.58-1.1,2.76,2.76,0,0,0-1-.74,3.56,3.56,0,0,0-2.72,0,2.76,2.76,0,0,0-1,.74,3.13,3.13,0,0,0-.58,1.1,5.27,5.27,0,0,0,0,2.73,3.13,3.13,0,0,0,.58,1.1,2.73,2.73,0,0,0,1,.73,3.56,3.56,0,0,0,2.72,0,2.82,2.82,0,0,0,1-.73,3.13,3.13,0,0,0,.58-1.1,5.27,5.27,0,0,0,0-2.73Zm10.4,3.49a.12.12,0,0,0-.16-.07,2.69,2.69,0,0,1-.59.16,3.73,3.73,0,0,1-.69,0A1.92,1.92,0,0,1,56.89,26a2.42,2.42,0,0,1-.55-1.73,2.74,2.74,0,0,1,.49-1.67A1.66,1.66,0,0,1,58.24,22a4.3,4.3,0,0,1,1.34.19s.09.05.14-.08c.11-.31.2-.53.31-.87a.11.11,0,0,0-.07-.15,5.26,5.26,0,0,0-.85-.21,5.34,5.34,0,0,0-1-.07,3.44,3.44,0,0,0-1.41.27,3,3,0,0,0-1,.74,3.05,3.05,0,0,0-.62,1.1,4.32,4.32,0,0,0-.21,1.37,3.64,3.64,0,0,0,.85,2.52,3.18,3.18,0,0,0,2.5.94A5.11,5.11,0,0,0,60,27.45a.11.11,0,0,0,.05-.15ZM62,23.61a2.36,2.36,0,0,1,.35-1A1.36,1.36,0,0,1,63.57,22a1.31,1.31,0,0,1,1.2.62,2.07,2.07,0,0,1,.29,1Zm4.26-.9a2.67,2.67,0,0,0-.54-1,2.43,2.43,0,0,0-.82-.62,3,3,0,0,0-1.23-.25,3.41,3.41,0,0,0-1.41.27,2.79,2.79,0,0,0-1,.76A3,3,0,0,0,60.69,23a4.63,4.63,0,0,0-.19,1.37,4.53,4.53,0,0,0,.2,1.37,2.68,2.68,0,0,0,.62,1.09,2.65,2.65,0,0,0,1.08.71,4.22,4.22,0,0,0,1.55.26,4.53,4.53,0,0,0,2.16-.43s.1-.07,0-.21l-.28-.78a.12.12,0,0,0-.16-.08A4.09,4.09,0,0,1,64,26.6a1.75,1.75,0,0,1-2-1.93h4.29a.12.12,0,0,0,.12-.11A4.42,4.42,0,0,0,66.26,22.71Zm-38.61.9a2.36,2.36,0,0,1,.35-1A1.36,1.36,0,0,1,29.22,22a1.32,1.32,0,0,1,1.2.62,2.07,2.07,0,0,1,.29,1Zm4.26-.9a2.67,2.67,0,0,0-.54-1,2.43,2.43,0,0,0-.82-.62,3,3,0,0,0-1.23-.25,3.41,3.41,0,0,0-1.41.27,2.79,2.79,0,0,0-1,.76A3,3,0,0,0,26.34,23a4.63,4.63,0,0,0-.19,1.37,4.88,4.88,0,0,0,.19,1.37A2.82,2.82,0,0,0,27,26.81a2.65,2.65,0,0,0,1.08.71,4.22,4.22,0,0,0,1.55.26,4.53,4.53,0,0,0,2.16-.43s.09-.07,0-.21l-.28-.78a.12.12,0,0,0-.16-.08,4.11,4.11,0,0,1-1.77.32,1.75,1.75,0,0,1-2-1.93h4.29a.12.12,0,0,0,.12-.11A4.42,4.42,0,0,0,31.91,22.71ZM18.38,26.42a.93.93,0,0,1-.25-.26,1,1,0,0,1-.13-.55,1,1,0,0,1,.38-.83,1.88,1.88,0,0,1,1.25-.31,7.46,7.46,0,0,1,1.16.1v1.94h0a8.55,8.55,0,0,1-1.16.16A1.93,1.93,0,0,1,18.38,26.42Zm1.7-3h-.67a4,4,0,0,0-1.05.13,2.66,2.66,0,0,0-.9.42,2,2,0,0,0-.62.7,2.13,2.13,0,0,0-.23,1,2.25,2.25,0,0,0,.2,1,1.74,1.74,0,0,0,.56.67,2.3,2.3,0,0,0,.87.38,5,5,0,0,0,1.14.12,8,8,0,0,0,1.3-.11l1.08-.21.3-.08a.13.13,0,0,0,.1-.14V23.32a2.36,2.36,0,0,0-.69-1.89,2.88,2.88,0,0,0-2-.6,7.46,7.46,0,0,0-1.15.11,4.18,4.18,0,0,0-1.32.48.14.14,0,0,0,0,.17l.31.82a.11.11,0,0,0,.14.07l.07,0A4.28,4.28,0,0,1,19.38,22a1.7,1.7,0,0,1,1.06.28c.23.17.35.45.35,1v.18Zm34.6-2.21a.06.06,0,0,0,0,0,.12.12,0,0,0-.07-.11,4,4,0,0,0-.72-.12,2.08,2.08,0,0,0-1.11.18,2,2,0,0,0-.73.53v-.52a.12.12,0,0,0-.12-.13h-1.1a.12.12,0,0,0-.12.13v6.4a.13.13,0,0,0,.13.13H52a.13.13,0,0,0,.13-.13v-3.2a3.62,3.62,0,0,1,.14-1.13,1.75,1.75,0,0,1,.37-.63,1.51,1.51,0,0,1,.53-.32,2.25,2.25,0,0,1,.58-.08,2.37,2.37,0,0,1,.47.06.15.15,0,0,0,.16-.11Z"/><path class="cls-2" d="M44.1,18.23a3.2,3.2,0,0,0-.42-.1,3.79,3.79,0,0,0-.58-.05,2.43,2.43,0,0,0-1.82.66,3.47,3.47,0,0,0-.86,1.94l-.06.29h-1a.15.15,0,0,0-.14.13l-.16.89c0,.08,0,.14.14.14h.94l-1,5.36A6.69,6.69,0,0,1,39,28.55a2.3,2.3,0,0,1-.3.61.82.82,0,0,1-.4.31,1.83,1.83,0,0,1-.5.07,1.86,1.86,0,0,1-.34,0,.75.75,0,0,1-.24-.08.11.11,0,0,0-.15.07l-.32.88a.13.13,0,0,0,.07.17l.39.11a2.43,2.43,0,0,0,.63.06,3.09,3.09,0,0,0,1.05-.16,2,2,0,0,0,.79-.56A2.78,2.78,0,0,0,40.2,29a9.12,9.12,0,0,0,.38-1.45l1-5.46H43A.15.15,0,0,0,43.1,22l.16-.89c0-.09,0-.14-.14-.14H41.75A7.05,7.05,0,0,1,42,20a1.19,1.19,0,0,1,.31-.45.89.89,0,0,1,.35-.23,1.48,1.48,0,0,1,.47-.06,1.9,1.9,0,0,1,.35,0l.22.06c.14,0,.16,0,.18-.07l.33-.9A.12.12,0,0,0,44.1,18.23ZM24.94,27.51a.12.12,0,0,1-.12.13H23.68a.12.12,0,0,1-.12-.13V18.35a.12.12,0,0,1,.12-.13h1.14a.12.12,0,0,1,.12.13Z"/></g></g></svg>