<svg id="Layer_1" data-name="Layer 1" xmlns="http://www.w3.org/2000/svg" viewBox="0 0 119.77 19.34"><defs><style>.cls-1{fill:#fff;}</style></defs><title>logoWhite</title><path class="cls-1" d="M15.31,7.54l-2.37,7.18L10.68,7.54H7.76L5.49,14.72,3.12,7.54H0l4.08,11.3H6.9l2.32-7.29,2.31,7.29h2.82l4.08-11.3Z" transform="translate(0)"/><path class="cls-1" d="M29.78,11.7a4.81,4.81,0,0,0-5-4.67A3.83,3.83,0,0,0,22,8.11V0H19V18.84h3V12.11a2.46,2.46,0,0,1,2.52-2.36,2.09,2.09,0,0,1,2.26,2.08v7h3Z" transform="translate(0)"/><path class="cls-1" d="M35.07,0h-3V3.27h3Zm0,7.54h-3v11.3h3Z" transform="translate(0)"/><path class="cls-1" d="M43.38,7.54h-2V0h-3V7.54h-2v2.63h2v8.67h3V10.17h2Z" transform="translate(0)"/><path class="cls-1" d="M56.47,13.19a6.14,6.14,0,1,0-.83,3.09l-2.55-1.51A3.07,3.07,0,0,1,50.3,16.7a3.15,3.15,0,0,1-2.92-2.23h9A6.53,6.53,0,0,0,56.47,13.19ZM47.4,11.83a3,3,0,0,1,5.79,0Z" transform="translate(0)"/><path class="cls-1" d="M70.56,13.19a6,6,0,0,0-6.09-6.13,5.17,5.17,0,0,0-3.22,1.08V0h-3V18.84h3v-.61a5.17,5.17,0,0,0,3.22,1.08A6,6,0,0,0,70.56,13.19Zm-3,0a3.16,3.16,0,1,1-6.29,0,3.16,3.16,0,1,1,6.29,0Z" transform="translate(0)"/><path class="cls-1" d="M84.17,13.19A6.17,6.17,0,1,0,78,19.34,6.18,6.18,0,0,0,84.17,13.19Zm-3,0a3.17,3.17,0,1,1-6.3,0,3.17,3.17,0,1,1,6.3,0Z" transform="translate(0)"/><path class="cls-1" d="M97.76,7.54h-3v.6a5.17,5.17,0,0,0-3.22-1.08,6,6,0,0,0-6.09,6.13,6,6,0,0,0,6.09,6.12,5.17,5.17,0,0,0,3.22-1.08v.61h3Zm-3,5.65a3.16,3.16,0,1,1-6.29,0,3.16,3.16,0,1,1,6.29,0Z" transform="translate(0)"/><path class="cls-1" d="M106.66,7.16A9.45,9.45,0,0,0,105.18,7a3.49,3.49,0,0,0-2.75,1.08V7.54h-3v11.3h3V12.08a2.54,2.54,0,0,1,2.65-2.49,7.14,7.14,0,0,1,1.58.26Z" transform="translate(0)"/><path class="cls-1" d="M119.77,0h-3V8.14a5.2,5.2,0,0,0-3.23-1.08,6,6,0,0,0-6.09,6.13,6,6,0,0,0,6.09,6.12,5.2,5.2,0,0,0,3.23-1.08v.61h3Zm-3,13.19a3.17,3.17,0,1,1-6.3,0,3.17,3.17,0,1,1,6.3,0Z" transform="translate(0)"/><rect class="cls-1" x="66.21" width="45.38" height="2.98"/></svg>